<svg width="100" height="100" viewBox="0 0 100 100" fill="none" xmlns="http://www.w3.org/2000/svg">
<rect width="100" height="100" fill="white"/>
<path d="M67.2 66V33C67.2 30.2386 64.9614 28 62.2 28H42.4909C39.7295 28 37.4909 30.2386 37.4909 33V66C37.4909 68.7614 39.7295 71 42.4909 71H62.2C64.9614 71 67.2 68.7614 67.2 66Z" stroke="black" stroke-width="5"/>
<path d="M57.0363 54.0364H47.6545" stroke="black" stroke-width="5" stroke-linecap="round"/>
<path d="M57.0363 45H47.6545" stroke="black" stroke-width="5" stroke-linecap="round"/>
<rect x="32.8" y="34.2545" width="4.69091" height="3.90909" rx="1.95455" fill="black"/>
<rect x="32.7999" y="42.8545" width="4.69091" height="3.90909" rx="1.95455" fill="black"/>
<rect x="32.7999" y="51.4546" width="4.69091" height="3.90909" rx="1.95455" fill="black"/>
<rect x="32.7999" y="60.0546" width="4.69091" height="3.90909" rx="1.95455" fill="black"/>
</svg>
