<svg width="100" height="100" viewBox="0 0 100 100" fill="none" xmlns="http://www.w3.org/2000/svg">
<path fill-rule="evenodd" clip-rule="evenodd" d="M50.2017 35.1475C47.1726 35.1475 44.4234 36.515 42.6462 38.5959C40.8569 40.691 39.9972 43.5964 40.98 46.5448C41.0875 46.8674 41.1956 47.2015 41.3062 47.5429C41.907 49.3993 42.5786 51.4743 43.606 53.1003C44.246 54.1133 45.076 55.0515 46.2027 55.7287C47.341 56.4128 48.6712 56.7637 50.2017 56.7637C51.7323 56.7637 53.0625 56.4128 54.2007 55.7287C55.3275 55.0515 56.1575 54.1133 56.7975 53.1003C57.8249 51.4743 58.4965 49.3993 59.0973 47.543C59.2078 47.2015 59.316 46.8674 59.4235 46.5448C60.4063 43.5964 59.5465 40.691 57.7572 38.5959C55.9801 36.515 53.2309 35.1475 50.2017 35.1475ZM45.4803 41.0163C44.4049 42.2755 44.0077 43.8424 44.5157 45.3663C44.6475 45.7618 44.7723 46.1443 44.8928 46.5136C45.5024 48.3825 46.0028 49.9164 46.7567 51.1096C47.1763 51.7738 47.6215 52.2332 48.1226 52.5343C48.6121 52.8285 49.2623 53.0367 50.2017 53.0367C51.1412 53.0367 51.7914 52.8285 52.2809 52.5343C52.7819 52.2332 53.2272 51.7738 53.6468 51.1096C54.4007 49.9164 54.9011 48.3825 55.5107 46.5136C55.6312 46.1443 55.756 45.7618 55.8878 45.3663C56.3958 43.8424 55.9986 42.2755 54.9232 41.0163C53.8357 39.743 52.1126 38.8744 50.2017 38.8744C48.2909 38.8744 46.5677 39.743 45.4803 41.0163Z" fill="black"/>
<path d="M67.3454 71.6714C67.3454 62.6148 59.8916 59.7452 49.8289 59.7452C39.7662 59.7452 33.0577 62.6148 33.0577 71.6714" stroke="black" stroke-width="4" stroke-linecap="round"/>
<path d="M32.1818 33.3333C32.1818 30.5719 34.4204 28.3333 37.1818 28.3333H44.4333C45.7475 28.3333 46.9312 27.5386 47.4288 26.3223V26.3223C48.5257 23.6409 52.3228 23.6409 53.4197 26.3223V26.3223C53.9173 27.5386 55.101 28.3333 56.4152 28.3333H62.8182C65.5796 28.3333 67.8182 30.5719 67.8182 33.3333V70C67.8182 72.7614 65.5796 75 62.8182 75H37.1818C34.4204 75 32.1818 72.7614 32.1818 70V33.3333Z" stroke="black" stroke-width="5"/>
</svg>
