<svg width="21" height="19" viewBox="0 0 21 19" fill="none" xmlns="http://www.w3.org/2000/svg">
<path d="M10.3401 6.17411L13.3462 9.18024L13.3605 9.02278C13.3605 7.44335 12.077 6.15979 10.4976 6.15979L10.3401 6.17411Z" fill="black"/>
<path d="M10.4976 4.25116C13.1316 4.25116 15.2693 6.38887 15.2693 9.02282C15.2693 9.63836 15.1453 10.2253 14.9305 10.7645L17.7219 13.5559C19.163 12.3534 20.2986 10.7979 21.0001 9.02282C19.3443 4.83333 15.2741 1.86536 10.4977 1.86536C9.16161 1.86536 7.88284 2.10392 6.6947 2.53337L8.75605 4.58993C9.29519 4.38 9.8821 4.25116 10.4976 4.25116Z" fill="black"/>
<path d="M0.954313 1.65061L3.13018 3.82648L3.56442 4.26071C1.98977 5.49179 0.744376 7.12848 0 9.02279C1.651 13.2123 5.72597 16.1803 10.4976 16.1803C11.9769 16.1803 13.3892 15.894 14.6824 15.3738L15.088 15.7794L17.8699 18.5661L19.0866 17.3541L2.17108 0.433838L0.954313 1.65061ZM6.23178 6.92329L7.70622 8.39772C7.66327 8.60292 7.63464 8.80807 7.63464 9.02279C7.63464 10.6022 8.9182 11.8858 10.4976 11.8858C10.7124 11.8858 10.9175 11.8572 11.118 11.8142L12.5924 13.2886C11.9577 13.6036 11.2516 13.7945 10.4976 13.7945C7.86368 13.7945 5.72597 11.6567 5.72597 9.02279C5.72597 8.26889 5.91685 7.56267 6.23178 6.92329Z" fill="black"/>
</svg>
