<svg width="100" height="100" viewBox="0 0 100 100" fill="none" xmlns="http://www.w3.org/2000/svg">
<path d="M38.376 45.692C38.0092 45.0879 37.5022 44.624 36.8549 44.3004C36.2292 43.9767 35.4848 43.8149 34.6218 43.8149C33.0252 43.8149 31.763 44.3327 30.8353 45.3684C29.9291 46.404 29.476 47.7956 29.476 49.5433C29.476 51.5067 29.9615 53.0062 30.9324 54.0418C31.9248 55.0559 33.3596 55.5629 35.2367 55.5629C37.459 55.5629 39.0448 54.5596 39.9942 52.5531H33.6185V47.9898H45.4636V54.1389C44.9674 55.3472 44.2338 56.4799 43.2629 57.5371C42.3136 58.5943 41.1053 59.4681 39.6382 60.1585C38.171 60.8274 36.4989 61.1618 34.6218 61.1618C32.3348 61.1618 30.3067 60.6764 28.5375 59.7055C26.7898 58.713 25.4305 57.3429 24.4596 55.5953C23.5103 53.8261 23.0356 51.8087 23.0356 49.5433C23.0356 47.2994 23.5103 45.3036 24.4596 43.556C25.4305 41.7868 26.7898 40.4167 28.5375 39.4458C30.2851 38.4533 32.3024 37.9571 34.5895 37.9571C37.459 37.9571 39.8324 38.6475 41.7095 40.0284C43.5865 41.4092 44.7516 43.2971 45.2047 45.692H38.376ZM55.6205 38.1836V61H49.2772V38.1836H55.6205ZM75.6736 38.1836V43.2324H66.547V47.2455H73.2787V52.0676H66.547V61H60.2038V38.1836H75.6736Z" fill="black"/>
</svg>
