<svg width="100" height="100" viewBox="0 0 100 100" fill="none" xmlns="http://www.w3.org/2000/svg">
<rect width="100" height="100" fill="white"/>
<path d="M26 36C26 34.3431 27.3431 33 29 33H59C60.6569 33 62 34.3431 62 36V48.1397C62 48.4448 62.0465 48.7481 62.138 49.0392L64.2803 55.8556C65.0742 58.3816 62.445 60.6225 60.0767 59.4384L54.2334 56.5167C53.8169 56.3084 53.3575 56.2 52.8918 56.2H29C27.3431 56.2 26 54.8569 26 53.2V36Z" stroke="black" stroke-width="5"/>
<rect x="30" y="37.8" width="48.8" height="32" fill="white"/>
<path d="M35.6 46.3999C35.6 44.743 36.9431 43.3999 38.6 43.3999H68.6C70.2569 43.3999 71.6 44.743 71.6 46.3999V58.5396C71.6 58.8447 71.6465 59.148 71.738 59.4391L73.8803 66.2555C74.6742 68.7815 72.045 71.0224 69.6767 69.8383L63.8334 66.9166C63.4169 66.7083 62.9575 66.5999 62.4918 66.5999H38.6C36.9431 66.5999 35.6 65.2568 35.6 63.5999V46.3999Z" fill="white"/>
<path d="M35.6 46.3999C35.6 44.743 36.9431 43.3999 38.6 43.3999H68.6C70.2569 43.3999 71.6 44.743 71.6 46.3999V58.5396C71.6 58.8447 71.6465 59.148 71.738 59.4391L73.8803 66.2555C74.6742 68.7815 72.045 71.0224 69.6767 69.8383L63.8334 66.9166C63.4169 66.7083 62.9575 66.5999 62.4918 66.5999H38.6C36.9431 66.5999 35.6 65.2568 35.6 63.5999V46.3999Z" fill="white"/>
<path d="M63.8334 66.9166L69.6767 69.8383C72.045 71.0224 74.6742 68.7815 73.8803 66.2555L71.738 59.4391C71.6465 59.148 71.6 58.8447 71.6 58.5396V46.3999C71.6 44.743 70.2569 43.3999 68.6 43.3999H38.6C36.9431 43.3999 35.6 44.743 35.6 46.3999V63.5999C35.6 65.2568 36.9431 66.5999 38.6 66.5999H62.4918C62.9575 66.5999 63.4169 66.7083 63.8334 66.9166Z" stroke="black" stroke-width="5"/>
</svg>
