<svg width="100" height="100" viewBox="0 0 100 100" fill="none" xmlns="http://www.w3.org/2000/svg">
<rect width="100" height="100" fill="white"/>
<path d="M26 36C26 33.7909 27.7909 32 30 32H64.7723C66.9814 32 68.7723 33.7909 68.7723 36V50.3727C68.7723 50.7707 68.8317 51.1664 68.9484 51.5468L71.2226 58.9538C72.2604 62.3339 68.7238 65.2995 65.5763 63.6886L59.6504 60.6555C59.0863 60.3668 58.4616 60.2162 57.8279 60.2162H30C27.7909 60.2162 26 58.4254 26 56.2162V36Z" fill="white"/>
<path d="M26 36C26 33.7909 27.7909 32 30 32H64.7723C66.9814 32 68.7723 33.7909 68.7723 36V50.3727C68.7723 50.7707 68.8317 51.1664 68.9484 51.5468L71.2226 58.9538C72.2604 62.3339 68.7238 65.2995 65.5763 63.6886L59.6504 60.6555C59.0863 60.3668 58.4616 60.2162 57.8279 60.2162H30C27.7909 60.2162 26 58.4254 26 56.2162V36Z" fill="white"/>
<path d="M59.6504 60.6555L65.5763 63.6886C68.7238 65.2995 72.2604 62.3339 71.2226 58.9538L68.9484 51.5468C68.8317 51.1664 68.7723 50.7707 68.7723 50.3727V36C68.7723 33.7909 66.9814 32 64.7723 32H30C27.7909 32 26 33.7909 26 36V56.2162C26 58.4254 27.7909 60.2162 30 60.2162H57.8279C58.4616 60.2162 59.0863 60.3668 59.6504 60.6555Z" stroke="black" stroke-width="5"/>
</svg>
