<svg width="100" height="100" viewBox="0 0 100 100" fill="none" xmlns="http://www.w3.org/2000/svg">
<rect width="100" height="100" fill="white"/>
<path d="M34.898 54.6994L35.2481 57.1748L37.398 56.8707V54.6994H34.898ZM65.102 54.6994H62.602V56.8707L64.7519 57.1748L65.102 54.6994ZM53.6224 67C53.6224 68.1999 53.2272 69.5608 52.5202 70.5603C51.8489 71.5094 51.0161 72 50 72V77C52.9839 77 55.2123 75.4126 56.6022 73.4478C57.9565 71.5333 58.6224 69.1442 58.6224 67H53.6224ZM50 72C48.9839 72 48.1511 71.5094 47.4798 70.5603C46.7728 69.5608 46.3776 68.1999 46.3776 67H41.3776C41.3776 69.1442 42.0435 71.5333 43.3978 73.4478C44.7877 75.4126 47.0161 77 50 77V72ZM50 30.5C56.9861 30.5 62.602 36.0937 62.602 42.9358H67.602C67.602 33.2802 59.6952 25.5 50 25.5V30.5ZM50 25.5C40.3048 25.5 32.398 33.2802 32.398 42.9358H37.398C37.398 36.0937 43.0139 30.5 50 30.5V25.5ZM64.2857 63.445H35.7143V68.445H64.2857V63.445ZM35.7143 63.445C33.9129 63.445 32.5 62.008 32.5 60.2936H27.5C27.5 64.8215 31.2038 68.445 35.7143 68.445V63.445ZM67.5 60.2936C67.5 62.008 66.0871 63.445 64.2857 63.445V68.445C68.7962 68.445 72.5 64.8215 72.5 60.2936H67.5ZM34.5478 52.2241C30.5838 52.7848 27.5 56.1628 27.5 60.2936H32.5C32.5 58.7303 33.6737 57.3975 35.2481 57.1748L34.5478 52.2241ZM37.398 54.6994V42.9358H32.398V54.6994H37.398ZM64.7519 57.1748C66.3263 57.3975 67.5 58.7303 67.5 60.2936H72.5C72.5 56.1628 69.4162 52.7848 65.4522 52.2241L64.7519 57.1748ZM62.602 42.9358V54.6994H67.602V42.9358H62.602Z" fill="black"/>
</svg>
