<svg width="100" height="100" viewBox="0 0 100 100" fill="none" xmlns="http://www.w3.org/2000/svg">
<rect width="100" height="100" fill="white"/>
<path fill-rule="evenodd" clip-rule="evenodd" d="M50.2376 29.031C46.6675 29.031 43.4274 30.6428 41.3328 33.0953C39.224 35.5645 38.2107 38.9887 39.3691 42.4636C39.4958 42.8438 39.6232 43.2375 39.7535 43.64C40.4616 45.8278 41.2531 48.2733 42.464 50.1898C43.2183 51.3837 44.1965 52.4894 45.5244 53.2875C46.866 54.0938 48.4337 54.5072 50.2376 54.5072C52.0414 54.5072 53.6091 54.0938 54.9507 53.2875C56.2786 52.4894 57.2568 51.3837 58.0112 50.1898C59.222 48.2733 60.0135 45.8278 60.7216 43.64C60.8519 43.2375 60.9793 42.8438 61.106 42.4636C62.2644 38.9887 61.2511 35.5645 59.1423 33.0953C57.0477 30.6428 53.8076 29.031 50.2376 29.031ZM44.673 35.9479C43.4056 37.4319 42.9374 39.2786 43.5361 41.0746C43.6915 41.5407 43.8385 41.9915 43.9806 42.4269C44.6991 44.6294 45.2888 46.4373 46.1773 47.8436C46.6719 48.6263 47.1966 49.1677 47.7871 49.5227C48.3641 49.8694 49.1304 50.1148 50.2376 50.1148C51.3447 50.1148 52.1111 49.8694 52.688 49.5227C53.2785 49.1677 53.8033 48.6263 54.2978 47.8436C55.1863 46.4373 55.7761 44.6294 56.4946 42.4269C56.6366 41.9915 56.7836 41.5407 56.939 41.0746C57.5377 39.2786 57.0695 37.4319 55.8022 35.9479C54.5205 34.4472 52.4896 33.4235 50.2376 33.4235C47.9855 33.4235 45.9546 34.4472 44.673 35.9479Z" fill="black"/>
<path d="M70.4428 72.0771C70.4428 61.4032 61.6579 58.0212 49.7983 58.0212C37.9386 58.0212 30.0322 61.4032 30.0322 72.0771" stroke="black" stroke-width="5" stroke-linecap="round"/>
</svg>
