<svg width="100" height="100" viewBox="0 0 100 100" fill="none" xmlns="http://www.w3.org/2000/svg">
<rect width="100" height="100" fill="white"/>
<path d="M62.9679 46.8237C62.5956 45.707 62.8833 44.5539 63.6827 43.618C64.4925 42.6697 65.7785 42.0207 67.2054 42.0207C68.6322 42.0207 69.9182 42.6697 70.7281 43.618C71.5274 44.5539 71.8151 45.707 71.4428 46.8237C71.3411 47.1289 71.2449 47.424 71.1521 47.7084C70.6806 49.1537 70.3007 50.315 69.7321 51.215C69.4178 51.7124 69.0904 52.047 68.7296 52.2639C68.3786 52.4748 67.9051 52.6294 67.2054 52.6294C66.5056 52.6294 66.0321 52.4748 65.6811 52.2639C65.3204 52.047 64.9929 51.7124 64.6786 51.215C64.11 50.315 63.7301 49.1537 63.2587 47.7084L63.2585 47.7079C63.1658 47.4236 63.0696 47.1287 62.9679 46.8237ZM67.2054 38.85C64.8271 38.85 62.6682 39.9235 61.2716 41.5588C59.8648 43.2061 59.1837 45.4978 59.9599 47.8264C60.0425 48.0741 60.1256 48.3308 60.2107 48.594L60.214 48.6041C60.6746 50.0271 61.1966 51.6401 61.9981 52.9085C62.4999 53.7029 63.1547 54.4448 64.0478 54.9815C64.9507 55.5242 66.0027 55.8001 67.2054 55.8001C68.4081 55.8001 69.46 55.5242 70.3629 54.9815C71.256 54.4448 71.9108 53.7029 72.4127 52.9085C73.2141 51.6401 73.7362 50.0271 74.1967 48.604L74.2 48.594C74.2852 48.3308 74.3683 48.0741 74.4508 47.8264C75.227 45.4978 74.546 43.2061 73.1392 41.5588C71.7425 39.9235 69.5836 38.85 67.2054 38.85Z" fill="black" stroke="black" stroke-width="0.3"/>
<path d="M80.4107 68.1329C80.4107 61.157 74.6693 58.9467 66.9183 58.9467C63.5556 58.9467 60.6792 59.3627 58.5001 60.4034" stroke="black" stroke-width="3.5" stroke-linecap="round"/>
<path d="M26.0001 70.0461C26.0001 67.9773 26.3677 66.4913 26.9293 65.3916C27.4833 64.3069 28.283 63.4854 29.3348 62.8226C31.7005 61.3319 35.5932 60.4902 41.2661 60.4902C46.9241 60.4902 51.1063 61.3253 53.7418 62.8869C54.9337 63.5931 55.8175 64.4491 56.4182 65.5309C57.0225 66.6189 57.4106 68.0621 57.4106 70.0461C57.4106 72.5314 59.4254 74.5461 61.9106 74.5461C64.3959 74.5461 66.4106 72.5314 66.4106 70.0461C66.4106 63.1993 63.443 58.1739 58.3297 55.144C53.6081 52.3464 47.4684 51.4902 41.2661 51.4902C35.0786 51.4902 29.0887 52.3398 24.5366 55.2083C19.5833 58.3296 17.0001 63.3977 17.0001 70.0461C17.0001 72.5314 19.0148 74.5461 21.5001 74.5461C23.9853 74.5461 26.0001 72.5314 26.0001 70.0461Z" fill="black" stroke="white" stroke-width="4" stroke-linecap="round"/>
<path fill-rule="evenodd" clip-rule="evenodd" d="M41.7055 27C38.1354 27 34.8953 28.6118 32.8008 31.0643C30.692 33.5335 29.6787 36.9577 30.837 40.4326C30.9637 40.8128 31.0912 41.2065 31.2214 41.609C31.9296 43.7968 32.7211 46.2423 33.9319 48.1587C34.6862 49.3526 35.6644 50.4584 36.9924 51.2565C38.3339 52.0627 39.9016 52.4762 41.7055 52.4762C43.5094 52.4762 45.0771 52.0627 46.4186 51.2565C47.7466 50.4584 48.7248 49.3526 49.4791 48.1587C50.6899 46.2423 51.4815 43.7968 52.1896 41.609C52.3198 41.2065 52.4473 40.8128 52.574 40.4326C53.7323 36.9577 52.719 33.5335 50.6102 31.0643C48.5157 28.6118 45.2756 27 41.7055 27ZM36.1409 33.9169C34.8735 35.4008 34.4054 37.2476 35.0041 39.0436C35.1594 39.5097 35.3065 39.9605 35.4485 40.3959C36.167 42.5984 36.7568 44.4063 37.6453 45.8126C38.1398 46.5953 38.6646 47.1367 39.2551 47.4916C39.832 47.8384 40.5983 48.0838 41.7055 48.0838C42.8127 48.0838 43.579 47.8384 44.156 47.4916C44.7465 47.1367 45.2712 46.5953 45.7657 45.8126C46.6542 44.4063 47.244 42.5984 47.9625 40.3958C48.1045 39.9605 48.2516 39.5097 48.407 39.0436C49.0056 37.2476 48.5375 35.4008 47.2701 33.9169C45.9884 32.4161 43.9576 31.3925 41.7055 31.3925C39.4535 31.3925 37.4226 32.4161 36.1409 33.9169Z" fill="black"/>
</svg>
