<svg width="100" height="100" viewBox="0 0 100 100" fill="none" xmlns="http://www.w3.org/2000/svg">
<rect width="100" height="100" fill="white"/>
<path d="M28 50V71.1852C28 71.6352 28.3648 72 28.8148 72H50C62.1503 72 72 62.1503 72 50C72 37.8497 62.1503 28 50 28C37.8497 28 28 37.8497 28 50Z" stroke="black" stroke-width="5"/>
<path fill-rule="evenodd" clip-rule="evenodd" d="M50.1936 35.3333C47.2847 35.3333 44.6446 36.6466 42.9379 38.6449C41.2196 40.6568 40.394 43.4469 41.3378 46.2784C41.4411 46.5881 41.5449 46.9089 41.651 47.2369C42.228 49.0195 42.873 51.0122 43.8596 52.5737C44.4742 53.5465 45.2713 54.4475 46.3533 55.0978C47.4464 55.7547 48.7238 56.0917 50.1936 56.0917C51.6634 56.0917 52.9408 55.7547 54.034 55.0978C55.116 54.4475 55.913 53.5465 56.5277 52.5737C57.5143 51.0122 58.1592 49.0195 58.7362 47.2369C58.8423 46.9089 58.9462 46.5881 59.0494 46.2784C59.9932 43.4469 59.1676 40.6568 57.4493 38.6449C55.7427 36.6466 53.1026 35.3333 50.1936 35.3333ZM45.6595 40.9692C44.6268 42.1784 44.2454 43.6832 44.7332 45.1466C44.8598 45.5264 44.9796 45.8937 45.0953 46.2484C45.6808 48.0431 46.1613 49.5162 46.8853 50.662C47.2882 51.2998 47.7158 51.741 48.197 52.0301C48.6671 52.3127 49.2915 52.5126 50.1936 52.5126C51.0958 52.5126 51.7202 52.3127 52.1903 52.0301C52.6714 51.741 53.099 51.2998 53.502 50.662C54.2259 49.5162 54.7065 48.0431 55.2919 46.2484C55.4076 45.8937 55.5275 45.5264 55.6541 45.1466C56.1419 43.6832 55.7604 42.1784 54.7277 40.9692C53.6834 39.7464 52.0286 38.9123 50.1936 38.9123C48.3586 38.9123 46.7038 39.7464 45.6595 40.9692Z" fill="black"/>
<path d="M33.7299 70.4077C33.7299 68.4874 34.044 66.8566 34.6375 65.4813C36.7319 60.6279 42.3059 58.9548 49.8356 58.9548C57.3653 58.9548 63.3738 60.6279 65.6602 65.4813" stroke="black" stroke-width="5" stroke-linecap="round"/>
</svg>
