<svg width="100" height="100" viewBox="0 0 100 100" fill="none" xmlns="http://www.w3.org/2000/svg">
<path d="M67.148 47.1677C66.8465 46.2632 67.0789 45.3284 67.7284 44.5679C68.3868 43.797 69.4327 43.269 70.5934 43.269C71.7541 43.269 72.8 43.797 73.4584 44.5679C74.1079 45.3284 74.3403 46.2632 74.0388 47.1677C73.9554 47.4177 73.8765 47.6595 73.8005 47.8925C73.414 49.0774 73.1038 50.0251 72.6403 50.7588C72.3844 51.1637 72.119 51.4344 71.828 51.6093C71.5452 51.7792 71.1623 51.9048 70.5934 51.9048C70.0245 51.9048 69.6416 51.7792 69.3588 51.6093C69.0678 51.4344 68.8024 51.1637 68.5465 50.7588C68.083 50.0251 67.7728 49.0774 67.3863 47.8925L67.3861 47.892C67.3102 47.6592 67.2313 47.4176 67.148 47.1677ZM70.5934 40.6175C68.6371 40.6175 66.8612 41.5004 65.7121 42.8459C64.5546 44.2013 63.9933 46.0883 64.6326 48.0062C64.7002 48.2089 64.7682 48.4191 64.838 48.6347L64.8412 48.6447C65.2181 49.8092 65.6466 51.1331 66.3049 52.1751C66.7176 52.8283 67.2568 53.4395 67.9929 53.8819C68.7373 54.3293 69.6039 54.5564 70.5934 54.5564C71.5829 54.5564 72.4496 54.3293 73.1939 53.8819C73.93 53.4395 74.4692 52.8283 74.8819 52.1751C75.5402 51.1331 75.9687 49.8092 76.3456 48.6447L76.3488 48.6347C76.4186 48.4191 76.4866 48.2089 76.5542 48.0062C77.1935 46.0883 76.6322 44.2013 75.4747 42.8459C74.3256 41.5004 72.5497 40.6175 70.5934 40.6175Z" fill="black" stroke="black" stroke-width="0.3"/>
<path d="M81.4106 64.8125C81.4106 59.0982 76.7075 57.2876 70.3584 57.2876C67.6038 57.2876 65.2476 57.6284 63.4626 58.4809" stroke="black" stroke-width="3.5" stroke-linecap="round"/>
<path d="M32.2626 47.1677C32.5641 46.2632 32.3317 45.3284 31.6822 44.5679C31.0238 43.797 29.9779 43.269 28.8172 43.269C27.6565 43.269 26.6106 43.797 25.9522 44.5679C25.3027 45.3284 25.0703 46.2632 25.3718 47.1677C25.4552 47.4177 25.5341 47.6595 25.6101 47.8925C25.9966 49.0774 26.3068 50.0251 26.7703 50.7588C27.0262 51.1637 27.2916 51.4344 27.5826 51.6093C27.8654 51.7792 28.2483 51.9048 28.8172 51.9048C29.3861 51.9048 29.769 51.7792 30.0518 51.6093C30.3428 51.4344 30.6082 51.1637 30.8641 50.7588C31.3276 50.0251 31.6378 49.0774 32.0243 47.8925L32.0245 47.892C32.1005 47.6592 32.1793 47.4176 32.2626 47.1677ZM28.8172 40.6175C30.7735 40.6175 32.5494 41.5004 33.6985 42.8459C34.856 44.2013 35.4173 46.0883 34.778 48.0062C34.7105 48.2089 34.6424 48.4191 34.5727 48.6347L34.5694 48.6447C34.1925 49.8092 33.764 51.1331 33.1057 52.1751C32.693 52.8283 32.1538 53.4395 31.4177 53.8819C30.6734 54.3293 29.8067 54.5564 28.8172 54.5564C27.8277 54.5564 26.9611 54.3293 26.2167 53.8819C25.4806 53.4395 24.9414 52.8283 24.5287 52.1751C23.8704 51.1331 23.4419 49.8092 23.065 48.6447L23.0618 48.6347C22.992 48.4191 22.924 48.2089 22.8564 48.0062C22.2171 46.0883 22.7784 44.2013 23.9359 42.8459C25.085 41.5004 26.8609 40.6175 28.8172 40.6175Z" fill="black" stroke="black" stroke-width="0.3"/>
<path d="M18 64.8125C18 59.0982 22.7031 57.2876 29.0522 57.2876C31.8068 57.2876 34.163 57.6284 35.948 58.4809" stroke="black" stroke-width="3.5" stroke-linecap="round"/>
<path d="M37.2021 66.3795C37.2021 64.7274 37.4956 63.5696 37.9237 62.7314C38.3441 61.9081 38.9509 61.2814 39.7648 60.7685C41.6148 59.6027 44.7191 58.9136 49.3455 58.9136C53.9584 58.9136 57.3055 59.5968 59.3805 60.8263C60.3118 61.3781 60.9854 62.036 61.4411 62.8565C61.9002 63.6833 62.2085 64.8023 62.2085 66.3795C62.2085 68.6151 64.0208 70.4274 66.2564 70.4274C68.4919 70.4274 70.3042 68.6151 70.3042 66.3795C70.3042 60.6497 67.8114 56.4116 63.5074 53.8614C59.556 51.52 54.448 50.8179 49.3455 50.8179C44.2562 50.8179 39.2654 51.5142 35.4488 53.9192C31.271 56.5518 29.1063 60.8283 29.1063 66.3795C29.1063 68.6151 30.9186 70.4274 33.1542 70.4274C35.3898 70.4274 37.2021 68.6151 37.2021 66.3795Z" fill="black" stroke="white" stroke-width="4" stroke-linecap="round"/>
<path fill-rule="evenodd" clip-rule="evenodd" d="M49.7054 31.1185C46.781 31.1185 44.1269 32.4388 42.4112 34.4478C40.6837 36.4704 39.8537 39.2753 40.8025 42.1218C40.9063 42.4332 41.0107 42.7557 41.1174 43.0854C41.6975 44.8776 42.3459 46.8808 43.3377 48.4506C43.9556 49.4286 44.7569 50.3344 45.8447 50.9881C46.9436 51.6486 48.2278 51.9873 49.7054 51.9873C51.1831 51.9873 52.4672 51.6486 53.5662 50.9881C54.654 50.3344 55.4552 49.4286 56.0731 48.4506C57.065 46.8808 57.7134 44.8776 58.2934 43.0854C58.4001 42.7557 58.5045 42.4332 58.6083 42.1218C59.5571 39.2753 58.7271 36.4704 56.9997 34.4478C55.284 32.4388 52.6298 31.1185 49.7054 31.1185ZM45.1472 36.7845C44.109 38.0001 43.7256 39.5128 44.216 40.984C44.3432 41.3658 44.4637 41.7351 44.58 42.0917C45.1686 43.8959 45.6517 45.3768 46.3795 46.5288C46.7846 47.1699 47.2144 47.6135 47.6982 47.9042C48.1707 48.1882 48.7985 48.3892 49.7054 48.3892C50.6124 48.3892 51.2401 48.1882 51.7127 47.9042C52.1964 47.6135 52.6263 47.1699 53.0313 46.5288C53.7592 45.3768 54.2423 43.8959 54.8308 42.0917C54.9472 41.7351 55.0676 41.3658 55.1949 40.984C55.6853 39.5128 55.3018 38.0001 54.2636 36.7845C53.2138 35.5551 51.5502 34.7166 49.7054 34.7166C47.8607 34.7166 46.1971 35.5551 45.1472 36.7845Z" fill="black"/>
</svg>
